<?xml version="1.0" encoding="UTF-8" standalone="no"?>
<!DOCTYPE svg PUBLIC "-//W3C//DTD SVG 1.1//EN"
 "http://www.w3.org/Graphics/SVG/1.1/DTD/svg11.dtd">
<!-- Generated by graphviz version 2.38.0 (20140413.2041)
 -->
<!-- Title: G Pages: 1 -->
<svg width="149pt" height="168pt"
 viewBox="0.00 0.00 149.00 168.00" xmlns="http://www.w3.org/2000/svg" xmlns:xlink="http://www.w3.org/1999/xlink">
<g id="graph0" class="graph" transform="scale(1 1) rotate(0) translate(4 164)">
<title>G</title>
<polygon fill="white" stroke="none" points="-4,4 -4,-164 145,-164 145,4 -4,4"/>
<g id="clust1" class="cluster"><title>cluster_Global</title>
<path fill="none" stroke="gray" d="M20,-8C20,-8 121,-8 121,-8 127,-8 133,-14 133,-20 133,-20 133,-140 133,-140 133,-146 127,-152 121,-152 121,-152 20,-152 20,-152 14,-152 8,-146 8,-140 8,-140 8,-20 8,-20 8,-14 14,-8 20,-8"/>
<text text-anchor="middle" x="70.5" y="-139.2" font-family="Times New Roman,serif" font-size="11.00" fill="gray">Global</text>
</g>
<g id="clust2" class="cluster"><title>cluster_\Siler</title>
<path fill="none" stroke="gray" d="M28,-16C28,-16 113,-16 113,-16 119,-16 125,-22 125,-28 125,-28 125,-112 125,-112 125,-118 119,-124 113,-124 113,-124 28,-124 28,-124 22,-124 16,-118 16,-112 16,-112 16,-28 16,-28 16,-22 22,-16 28,-16"/>
<text text-anchor="middle" x="70.5" y="-111.2" font-family="Times New Roman,serif" font-size="11.00" fill="gray">Siler</text>
</g>
<g id="clust4" class="cluster"><title>cluster_\Siler\Container</title>
<path fill="none" stroke="gray" d="M36,-24C36,-24 105,-24 105,-24 111,-24 117,-30 117,-36 117,-36 117,-84 117,-84 117,-90 111,-96 105,-96 105,-96 36,-96 36,-96 30,-96 24,-90 24,-84 24,-84 24,-36 24,-36 24,-30 30,-24 36,-24"/>
<text text-anchor="middle" x="70.5" y="-83.2" font-family="Times New Roman,serif" font-size="11.00" fill="gray">Container</text>
</g>
<!-- \\Siler\\Container\\Container -->
<g id="node1" class="node"><title>\\Siler\\Container\\Container</title>
<polygon fill="none" stroke="black" points="109,-68 32,-68 32,-32 109,-32 109,-68"/>
<text text-anchor="middle" x="70.5" y="-47.2" font-family="Courier,monospace" font-size="11.00">Container</text>
</g>
</g>
</svg>
